M48
;GenerationSoftware,Autodesk,EAGLE,9.6.2*%
;CreationDate,2024-12-17T22:56:19Z*%
FMAT,2
ICI,OFF
METRIC,TZ,000.000
T9C0.305
T8C0.889
T7C0.920
T6C1.000
T5C1.400
T4C2.300
T3C2.500
T2C3.000
T1C3.175
%
G90
M71
T1
X123190Y3810
X123190Y97790
X3810Y97790
X3810Y3810
T2
X86360Y20955
X86360Y78105
X10160Y20955
X10160Y78105
T3
X81200Y34910
X71200Y34910
X88980Y34910
X98980Y34910
T4
X97325Y74385
X97325Y87525
T5
X26570Y13930
X26570Y8930
X14070Y8930
X14070Y13930
X49430Y13930
X49430Y8930
X36930Y8930
X36930Y13930
T6
X10160Y35560
X10160Y38100
X10160Y40640
X10160Y43180
X10160Y45720
X10160Y48260
X10160Y50800
X10160Y53340
X10160Y55880
X10160Y58420
X10160Y60960
X10160Y63500
X10160Y66040
X10160Y68580
X10160Y71120
X10160Y73660
X10160Y33020
X10160Y30480
X10160Y27940
X10160Y25400
X96480Y41910
X93980Y41910
X91480Y41910
X73700Y41910
X76200Y41910
X78700Y41910
T7
X94615Y84455
X94615Y81955
X94615Y79955
X94615Y77455
T8
X28770Y68860
X28770Y66320
X31310Y68860
X31310Y66320
X33850Y68860
X33850Y66320
X36390Y68860
X36390Y66320
X38930Y68860
X38930Y66320
X41470Y68860
X41470Y66320
X44010Y68860
X44010Y66320
X46550Y68860
X46550Y66320
X49090Y68860
X49090Y66320
X51630Y68860
X51630Y66320
X54170Y68860
X54170Y66320
X56710Y68860
X56710Y66320
X59250Y68860
X59250Y66320
X61790Y68860
X61790Y66320
X64330Y68860
X64330Y66320
X66870Y68860
X66870Y66320
X26230Y66320
X26230Y68860
X23690Y66320
X23690Y68860
X66870Y91720
X66870Y94260
X64330Y91720
X64330Y94260
X61790Y91720
X61790Y94260
X59250Y91720
X59250Y94260
X56710Y91720
X56710Y94260
X54170Y91720
X54170Y94260
X51630Y91720
X51630Y94260
X49090Y91720
X49090Y94260
X46550Y91720
X46550Y94260
X44010Y91720
X44010Y94260
X41470Y91720
X41470Y94260
X38930Y91720
X38930Y94260
X36390Y91720
X36390Y94260
X33850Y91720
X33850Y94260
X31310Y91720
X31310Y94260
X28770Y91720
X28770Y94260
X26230Y91720
X26230Y94260
X23690Y91720
X23690Y94260
T9
X10160Y11430
X53340Y11430
X82550Y94615
X7620Y73660
X92075Y78105
X121285Y13970
X82550Y88900
X82550Y91440
M30